<svg width="30" height="30" viewBox="0 0 30 30" fill="none" xmlns="http://www.w3.org/2000/svg">
<path d="M26.2922 0.103027H3.1578C1.41615 0.103027 0.00311279 1.51606 0.00311279 3.25771V26.3921C0.00311279 28.1337 1.41615 29.5468 3.1578 29.5468H26.2922C28.0338 29.5468 29.4469 28.1337 29.4469 26.3921V3.25771C29.4469 1.51606 28.0338 0.103027 26.2922 0.103027ZM18.228 25.3208C17.6759 25.4194 17.4722 25.0776 17.4722 24.795C17.4722 24.4401 17.4853 22.6262 17.4853 21.1606C17.4853 20.1353 17.1436 19.4846 16.7427 19.1429C19.1744 18.8734 21.7376 18.5382 21.7376 14.3386C21.7376 13.1424 21.3104 12.5443 20.6137 11.7754C20.7255 11.4928 21.1001 10.3295 20.502 8.81785C19.5885 8.53524 17.4985 9.99429 17.4985 9.99429C16.6309 9.75111 15.6911 9.62624 14.7644 9.62624C13.8377 9.62624 12.8979 9.75111 12.0304 9.99429C12.0304 9.99429 9.94038 8.53524 9.02683 8.81785C8.42876 10.3229 8.79681 11.4862 8.91511 11.7754C8.21845 12.5443 7.88983 13.1424 7.88983 14.3386C7.88983 18.5185 10.3413 18.8734 12.773 19.1429C12.4576 19.4255 12.1749 19.9118 12.0764 20.6085C11.452 20.8911 9.85494 21.3775 8.90196 19.695C8.30388 18.6565 7.22603 18.5711 7.22603 18.5711C6.16133 18.5579 7.15374 19.2415 7.15374 19.2415C7.86354 19.5701 8.36304 20.832 8.36304 20.832C9.00054 22.7839 12.0501 22.1267 12.0501 22.1267C12.0501 23.0402 12.0632 24.5256 12.0632 24.795C12.0632 25.0776 11.8661 25.4194 11.3074 25.3208C6.96971 23.8683 3.93333 19.741 3.93333 14.9169C3.93333 8.88357 8.54706 4.30271 14.5804 4.30271C20.6137 4.30271 25.5035 8.88357 25.5035 14.9169C25.5101 19.741 22.5657 23.8749 18.228 25.3208ZM11.7806 21.3052C11.6557 21.3314 11.5374 21.2789 11.5243 21.1934C11.5112 21.0948 11.5966 21.0094 11.7215 20.9831C11.8463 20.97 11.9646 21.0226 11.9778 21.108C11.9975 21.1934 11.9121 21.2789 11.7806 21.3052ZM11.1562 21.246C11.1562 21.3314 11.0577 21.4037 10.9262 21.4037C10.7816 21.4169 10.683 21.3446 10.683 21.246C10.683 21.1606 10.7816 21.0883 10.9131 21.0883C11.0379 21.0751 11.1562 21.1474 11.1562 21.246ZM10.2558 21.1737C10.2296 21.2592 10.0981 21.2986 9.98638 21.2592C9.86151 21.2329 9.77607 21.1343 9.80236 21.0488C9.82865 20.9634 9.9601 20.924 10.0718 20.9503C10.2033 20.9897 10.2887 21.0883 10.2558 21.1737ZM9.44746 20.8188C9.38831 20.8911 9.26344 20.878 9.16485 20.7794C9.06627 20.6939 9.03998 20.5691 9.1057 20.5099C9.16485 20.4376 9.28972 20.4508 9.38831 20.5493C9.47375 20.6348 9.50661 20.7662 9.44746 20.8188ZM8.84938 20.2207C8.79023 20.2602 8.6785 20.2207 8.60621 20.1222C8.53391 20.0236 8.53391 19.9118 8.60621 19.8658C8.6785 19.8067 8.79023 19.8527 8.84938 19.9513C8.92168 20.0499 8.92168 20.1682 8.84938 20.2207V20.2207ZM8.42219 19.5832C8.36304 19.6424 8.26445 19.6095 8.19216 19.5438C8.11986 19.4583 8.10672 19.3598 8.16587 19.3138C8.22502 19.2546 8.3236 19.2875 8.3959 19.3532C8.46819 19.4386 8.48134 19.5372 8.42219 19.5832ZM7.98184 19.0969C7.95555 19.156 7.87012 19.1692 7.79782 19.1232C7.71238 19.0837 7.67295 19.0114 7.69924 18.9523C7.72552 18.9129 7.79782 18.8931 7.88326 18.926C7.9687 18.972 8.00813 19.0443 7.98184 19.0969Z" fill="white"/>
</svg>
